<svg width="32" height="32" viewBox="0 0 32 32" fill="none" xmlns="http://www.w3.org/2000/svg">
<g clip-path="url(#clip0_1_23)">
<path d="M16 32C24.8367 32 32 24.8364 32 15.9993C32 7.1643 24.8367 0 16 0C7.16333 0 0 7.16363 0 16C0 24.8364 7.16333 32 16 32Z" fill="#FA3D3D" fill-opacity="0.86"/>
<path d="M24.1452 9.38184V22.6182C24.1449 23.0232 23.9839 23.4115 23.6975 23.6978C23.4112 23.9841 23.0229 24.1452 22.618 24.1455H9.38218C8.97714 24.1453 8.58873 23.9844 8.30228 23.698C8.01582 23.4116 7.85474 23.0233 7.85443 22.6182V9.38184C7.85474 8.97689 8.01574 8.58861 8.30207 8.30227C8.5884 8.01593 8.97666 7.85492 9.3816 7.85461H22.618C23.0229 7.85492 23.4112 8.01593 23.6975 8.30227C23.9839 8.58861 24.1449 8.97689 24.1452 9.38184Z" fill="#04AB23"/>
<path d="M24.1452 10.132V22.6182C24.1449 23.0231 23.9839 23.4114 23.6975 23.6978C23.4112 23.9841 23.0229 24.1451 22.618 24.1454H9.38218C8.97704 24.1453 8.58854 23.9842 8.30207 23.6978C8.01559 23.4113 7.85459 23.0227 7.85443 22.6176V19.1204L10.7081 17.2851L15.0376 18.0493L18.9908 15.4143L21.2717 11.3646L24.1452 10.132Z" fill="#059BBF"/>
<path d="M24.1451 12.1819V11.6726H22.3642V10.6547H21.8549V11.6726H20.5821V12.1819H21.8549V13.7091H20.3278V12.9455H19.8185V13.7097H19.5642V14.2184H19.8185V15.7456H17.7827V17.7815H16.2549V17.2729H15.7457V17.7821H14.2185V17.5272H13.7093V17.7821H12.1821V17.2729H11.6734V17.7821H10.1457V17.5272H9.637V17.7821H9.07175V18.2908H9.637V19.818H7.85492V20.3273H9.637V21.8545H7.85492V22.3638H9.637V24.1454H10.1457V22.3638H11.6734V24.1454H12.1821V22.3638H13.7093V24.1454H14.2185V22.3638H15.7457V24.1454H16.2549V22.3638H17.7821V24.1454H18.2913V22.3638H19.8185V24.1454H20.3278V22.3638H21.8549V24.1454H22.3642V22.3638H24.1457V21.8545H22.3642V20.3273H24.1457V19.818H22.3642V18.2908H24.1457V17.7821H22.3642V16.2549H24.1457V15.7456H22.3642V14.2184H24.1457V13.7091H22.3642V12.1819H24.1451ZM18.2908 16.2549H19.8179V17.7821H18.2908V16.2549ZM19.8179 18.2908V19.818H18.2908V18.2908H19.8179ZM17.7821 18.2908V19.818H16.2543V18.2908H17.7821ZM15.7451 18.2908V19.818H14.2179V18.2908H15.7451ZM13.7093 18.2908V19.818H12.1815V18.2908H13.7093ZM10.1451 18.2908H11.6728V19.818H10.1451V18.2908ZM10.1451 21.8545V20.3273H11.6728V21.8545H10.1451ZM12.1815 21.8545V20.3273H13.7093V21.8545H12.1815ZM14.2179 21.8545V20.3273H15.7451V21.8545H14.2179ZM16.2543 21.8545V20.3273H17.7815V21.8545H16.2543ZM18.2908 21.8545V20.3273H19.8179V21.8545H18.2908ZM21.8549 21.8545H20.3272V20.3273H21.8543L21.8549 21.8545ZM21.8549 19.8186H20.3272V18.2908H21.8543L21.8549 19.8186ZM21.8549 17.7821H20.3272V16.2549H21.8543L21.8549 17.7821ZM21.8549 15.7456H20.3272V14.2184H21.8543L21.8549 15.7456Z" fill="#21B2D1"/>
<path d="M24.1452 9.57785L21.4327 10.7387C20.7519 10.3946 20.049 11.1529 20.4363 11.8063L18.9302 14.4856C18.8049 14.463 18.6759 14.4723 18.5551 14.5127C18.4344 14.553 18.3257 14.6231 18.2392 14.7165C18.1526 14.8099 18.091 14.9236 18.06 15.0471C18.0289 15.1706 18.0295 15.2999 18.0616 15.4231L15.4378 17.1732C15.3516 17.1074 15.2523 17.061 15.1466 17.0371C15.0409 17.0131 14.9313 17.0123 14.8252 17.0345C14.7192 17.0568 14.6192 17.1016 14.532 17.166C14.4448 17.2304 14.3725 17.3128 14.3201 17.4077L11.4052 16.8926C11.2325 15.8501 9.67618 16.1867 9.91301 17.1924L7.85443 18.5149V19.1204L10.1889 17.6194C10.2749 17.687 10.3745 17.7352 10.4808 17.7605C10.5872 17.7858 10.6978 17.7877 10.805 17.7661C10.9122 17.7444 11.0134 17.6998 11.1016 17.6352C11.1898 17.5706 11.2629 17.4876 11.3159 17.3919L14.2308 17.9064C14.2456 18.0096 14.2813 18.1087 14.3358 18.1975C14.3904 18.2863 14.4625 18.3629 14.5479 18.4227C14.6332 18.4825 14.7299 18.5242 14.832 18.5451C14.9341 18.566 15.0394 18.5658 15.1414 18.5444C15.2434 18.523 15.3399 18.4809 15.425 18.4208C15.5101 18.3606 15.5819 18.2836 15.636 18.1945C15.6902 18.1055 15.7254 18.0063 15.7397 17.903C15.754 17.7998 15.7469 17.6947 15.7189 17.5944L18.3439 15.8454C19.0696 16.3903 19.9714 15.4225 19.3723 14.7365L20.8371 12.1353C21.4636 12.357 22.037 11.7392 21.7996 11.1383L24.1452 10.1326V9.57785Z" fill="white"/>
<path d="M16 13.5L13.5 15L11 13.5V9H16V13.5Z" fill="#04AB23"/>
<path d="M11 10V10.4545H12C12.4258 10.4545 12.9852 10.6909 13.1797 11.1364H11V11.5909H13.2422C13.165 12.1841 12.4933 12.5 12 12.5H11V13.0611L13.5625 15H14.3438L11.6405 12.9545H12C12.8085 12.9545 13.669 12.4114 13.7422 11.5909H15V11.1364H13.703C13.6272 10.8673 13.465 10.6375 13.25 10.4545H15V10H11Z" fill="white"/>
</g>
<defs>
<clipPath id="clip0_1_23">
<rect width="32" height="32" fill="white"/>
</clipPath>
</defs>
</svg>
